<svg width="76" height="41" viewBox="0 0 76 41" fill="none" xmlns="http://www.w3.org/2000/svg">
<g clip-path="url(#clip0_117_289)">
<path d="M37.6235 22.1786V25.9566C37.6235 26.2502 37.3886 26.4851 37.0949 26.4851H25.1345C24.8409 26.4851 24.606 26.72 24.606 27.0332L24.6647 29.3431C24.6647 29.6367 24.8996 29.8521 25.1932 29.8521H33.5127C33.8063 29.8521 34.0412 30.087 34.0412 30.3806V34.1586C34.0412 34.4522 33.8063 34.6871 33.5127 34.6871H25.1932C24.8996 34.6871 24.6647 34.922 24.6647 35.1961L24.5864 40.0507C24.5864 40.3443 24.3515 40.5597 24.0579 40.5597H20.2212C19.9275 40.5597 19.6926 40.3248 19.6926 40.0311V22.159C19.6926 21.8654 19.9275 21.6305 20.2212 21.6305H37.0754C37.3886 21.6501 37.6235 21.885 37.6235 22.1786Z" fill="black"/>
<path d="M44.651 35.6268L46.1387 35.6463C46.4323 35.6463 46.6477 35.8812 46.6477 36.1749V39.9724C46.6477 40.2661 46.4128 40.501 46.1191 40.501L39.7964 40.4618C39.5027 40.4618 39.2678 40.2269 39.2678 39.9333V22.1982C39.2678 21.9046 39.5027 21.6697 39.7964 21.6697H43.5744C43.868 21.6697 44.1029 21.9046 44.1029 22.1982V35.0982C44.142 35.3919 44.3574 35.6268 44.651 35.6268Z" fill="black"/>
<path d="M53.0094 40.5402H49.2314C48.9378 40.5402 48.7029 40.3053 48.7029 40.0116V31.3203C48.7029 31.0266 48.9378 30.7917 49.2314 30.7917H53.0094C53.303 30.7917 53.5379 31.0266 53.5379 31.3203V40.0116C53.5379 40.2857 53.303 40.5402 53.0094 40.5402Z" fill="black"/>
<path d="M62.4252 40.5989H58.6472C58.3536 40.5989 58.1187 40.364 58.1187 40.0704V22.2374C58.1187 21.9438 58.3536 21.7089 58.6472 21.7089H67.8084C68.9829 21.7089 70.0986 21.9633 71.1557 22.4919C72.2128 23.0204 73.1132 23.7055 73.9158 24.5864C74.6988 25.4477 75.3056 26.7788 75.3056 27.875C75.3252 30.87 74.6988 32.0054 73.9354 32.8667C73.1524 33.728 72.2519 34.3936 71.1949 34.9221C70.1378 35.431 69.022 35.7051 67.8084 35.7247C66.9862 35.7442 66.1836 35.7638 65.381 35.7442C64.7546 35.7247 64.1282 35.7247 63.4822 35.7247C63.1886 35.7247 62.9537 35.9596 62.9537 36.2532V40.0899C62.9537 40.364 62.7188 40.5989 62.4252 40.5989ZM62.9537 30.3219C62.9537 30.6156 63.1886 30.8505 63.4822 30.8505H67.6322C68.1803 30.8505 69.6876 30.6939 70.0986 30.3415C71.4689 29.2061 70.8034 27.7184 70.0986 27.1508C69.2961 26.5243 68.0628 26.5244 67.5147 26.5244H63.4822C63.1886 26.5244 62.9537 26.7593 62.9537 27.0529V30.3219Z" fill="black"/>
<path d="M15.9538 12.0388C14.838 12.8609 13.7026 13.6831 12.5477 14.5052C12.3715 14.6423 12.117 14.6423 11.9408 14.5052C10.7859 13.6831 9.65055 12.8609 8.53477 12.0388C7.57559 11.3536 6.63598 10.6489 5.6768 9.94422C5.32444 9.68974 4.83506 9.92465 4.83506 10.3749V18.4007C4.83506 18.6943 4.60016 18.9292 4.30653 18.9292H0.528529C0.234902 18.9292 0 18.6943 0 18.4007V0.880926C0 0.450272 0.489379 0.195795 0.841732 0.450272C2.6035 1.74223 4.36526 3.01462 6.12702 4.287C8.04539 5.67684 9.98333 7.08625 11.9213 8.51523C12.0974 8.65226 12.3519 8.65226 12.5477 8.51523C14.4856 7.08625 16.4236 5.67684 18.3615 4.287C20.1233 3.01462 21.885 1.74223 23.6468 0.450272C23.9991 0.195795 24.4885 0.450272 24.4885 0.880926V18.4007C24.4885 18.6943 24.2536 18.9292 23.96 18.9292H20.1624C19.8688 18.9292 19.6339 18.6943 19.6339 18.4007V10.3749C19.6339 9.94422 19.1445 9.68974 18.7922 9.94422C17.8525 10.6489 16.8934 11.3536 15.9538 12.0388Z" fill="black"/>
<path d="M44.9053 10.5314C44.3376 11.2753 43.6721 11.9408 42.8695 12.5085C42.341 12.9 41.7537 13.2132 41.1469 13.4481C40.775 13.6047 40.6967 14.0941 41.0099 14.3486L45.4926 17.9896C45.8841 18.3028 45.6492 18.9292 45.1598 18.9292H41.0099C40.8924 18.9292 40.775 18.89 40.6771 18.8117L34.7458 14.1333C34.6479 14.055 34.5305 14.0158 34.413 14.0158H31.8095C31.5159 14.0158 31.281 14.2507 31.281 14.5443V18.4006C31.281 18.6943 31.0461 18.9292 30.7525 18.9292H27.0136C26.72 18.9292 26.4851 18.6943 26.4851 18.4006V0.528529C26.4851 0.234902 26.72 0 27.0136 0H38.3085C38.3281 0 38.3281 0 38.3476 0C39.5026 0.0783006 41.5188 0.371928 42.5367 0.861307C45.1794 2.13369 45.7275 3.3082 45.982 5.57892C46.2952 8.06496 45.473 9.78758 44.9053 10.5314ZM38.4847 9.18075C38.9545 9.18075 39.9724 9.18075 40.5205 8.24114C40.9511 7.47771 40.7162 6.18575 40.4618 5.7551C39.9332 4.83506 38.6413 4.85464 38.0932 4.83506H31.8487C31.5551 4.83506 31.3202 5.06996 31.3202 5.36359V8.65222C31.3202 8.94585 31.5551 9.18075 31.8487 9.18075H38.4847Z" fill="black"/>
<path d="M47.3327 28.1296H54.9083C55.3389 28.1296 55.5934 27.6402 55.3193 27.2878L51.5218 22.2766C51.3064 22.0025 50.8954 22.0025 50.68 22.2766L46.8825 27.2878C46.6476 27.6402 46.902 28.1296 47.3327 28.1296Z" fill="url(#paint0_linear_117_289)"/>
<path d="M54.9082 12.9587H47.3326C46.902 12.9587 46.6475 13.4481 46.9215 13.8005L50.6996 18.8117C50.9149 19.0858 51.326 19.0858 51.5413 18.8117L55.3389 13.8005C55.5933 13.4481 55.3389 12.9587 54.9082 12.9587Z" fill="url(#paint1_linear_117_289)"/>
</g>
<defs>
<linearGradient id="paint0_linear_117_289" x1="51.0222" y1="15.4056" x2="51.1177" y2="26.9012" gradientUnits="userSpaceOnUse">
<stop stop-color="#7B51F7"/>
<stop offset="0.1747" stop-color="#7A55F6"/>
<stop offset="0.3541" stop-color="#7761F3"/>
<stop offset="0.5356" stop-color="#7276EF"/>
<stop offset="0.7187" stop-color="#6B93E8"/>
<stop offset="0.9013" stop-color="#62B8E0"/>
<stop offset="0.9973" stop-color="#5DCEDB"/>
</linearGradient>
<linearGradient id="paint1_linear_117_289" x1="51.2144" y1="7.26715" x2="50.9725" y2="23.8211" gradientUnits="userSpaceOnUse">
<stop stop-color="#7B51F7"/>
<stop offset="0.1747" stop-color="#7A55F6"/>
<stop offset="0.3541" stop-color="#7761F3"/>
<stop offset="0.5356" stop-color="#7276EF"/>
<stop offset="0.7187" stop-color="#6B93E8"/>
<stop offset="0.9013" stop-color="#62B8E0"/>
<stop offset="0.9973" stop-color="#5DCEDB"/>
</linearGradient>
<clipPath id="clip0_117_289">
<rect width="75.286" height="40.5989" fill="white"/>
</clipPath>
</defs>
</svg>
